<svg width="22" height="20" viewBox="0 0 22 20" fill="none" xmlns="http://www.w3.org/2000/svg">
<path d="M9.89046 0.85958C10.1903 -0.0606967 11.4922 -0.0606959 11.7921 0.859581L13.5432 6.23398C13.6773 6.64561 14.061 6.92418 14.494 6.92418H20.1547C21.1241 6.92418 21.5264 8.16521 20.7414 8.73398L16.1666 12.0486C15.8151 12.3033 15.668 12.7555 15.8025 13.1682L17.5511 18.5349C17.8511 19.4557 16.7978 20.2227 16.0135 19.6544L11.428 16.3321C11.0779 16.0784 10.6046 16.0784 10.2545 16.3321L5.66899 19.6544C4.88474 20.2227 3.83145 19.4557 4.13147 18.5348L5.88004 13.1682C6.0145 12.7555 5.86742 12.3033 5.51596 12.0486L0.941085 8.73398C0.156078 8.16521 0.558409 6.92418 1.5278 6.92418H7.18856C7.62148 6.92418 8.00525 6.64561 8.13936 6.23398L9.89046 0.85958Z" fill="#070707"/>
</svg>
